<?xml version="1.0" encoding="UTF-8"?>
<svg id="Layer_1" xmlns="http://www.w3.org/2000/svg" version="1.1" viewBox="0 0 1080 1080">
  <!-- Generator: Adobe Illustrator 29.3.1, SVG Export Plug-In . SVG Version: 2.1.0 Build 151)  -->
  <path id="path1708" d="M966.61,496.34c5.44,1.61,9.98,4.43,15.63,8.06l5.04,3.22,14.71-23.98-4.63-3.02c-8.06-5.24-17.24-11.08-30.74-13.3v-12.73h-15.99v11.92c-7.86.6-18.97,4.03-28.44,13.9-7.25,7.66-10.88,17.53-10.28,28.82.6,13.5,6.85,24.38,18.14,31.84,8.06,5.44,14.74,7.66,19.37,8.87l1.01.2h.2v33.85c-8.06-1.01-17.35-4.43-27.63-15.52l-20.55,19.34c9.67,10.28,20.96,17.33,33.65,21.36,6.25,1.81,9.7,2.62,14.53,3.02v13.36h15.99v-13.36c10.28-1.41,19.66-6.25,26.71-14.11,7.05-7.86,11.28-18.14,11.28-28.01s-3.83-19.55-11.08-27.61c-6.45-7.05-15.63-12.69-26.91-17.13v-29.02ZM950.62,520.92c-8.67-3.02-10.3-6.85-10.5-12.9-.2-4.63,1.21-6.85,2.42-8.06,2.62-2.82,5.06-4.23,8.09-4.84v25.79ZM966.61,556.59c6.25,4.03,9.78,8.66,9.78,13.5,0,3.02-2.53,10.48-9.78,13.3v-26.8Z"/>
  <path id="path1706" d="M175.12,579.67c-6,3.2-12.6,5-19.4,5-11.2,0-21.8-4.6-29.6-12.8-2-2-3.6-4.2-5.2-6.4h33.99v-16h-40.59c-.6-3-1-6.2-1-9.4,0-1.6,0-3,.2-4.6h41.39v-16h-36.79c2-4.2,4.8-7.8,8-11.2,7.8-8.2,18.4-12.8,29.6-12.8,6.2,0,12.2,1.4,17.8,4.2l17.6-22.4c-10.4-6.2-22.6-9.8-35.39-9.8-32,0-58.99,22-67.59,51.99h-13.2v16h10.6l-.2,4.6c0,3.2.2,6.4.6,9.4h-11v16h14.8c10,27.6,35.8,47.19,65.99,47.19,13.6,0,26.2-4,36.99-10.8l-17.6-22.2Z"/>
  <path d="M550.12,524.9v-22.81h-20.8l-6.51-34.6h-31.09l-9.25,34.6h-26.47l-9.25-34.6h-31.09l-6.51,34.6h-20.8v22.81h16.51l-3.63,19.29h-12.88v22.81h8.59l-8.59,45.66h29.17l7.52-45.66h20.7l12.12,45.66h22.74l12.12-45.66h20.7l7.52,45.66h29.17l-8.59-45.66h8.59v-22.81h-12.88l-3.63-19.29h16.51ZM476.38,524.9l-5.15,19.29h-3.97l-5.15-19.29h14.28ZM428.81,544.19l3.18-19.29h2.6l5.12,19.29h-10.89ZM509.67,544.19h-10.89l5.12-19.29h2.6l3.18,19.29Z"/>
  <path d="M750.38,524.9v-22.81h-20.8l-6.51-34.6h-31.09l-9.25,34.6h-26.47l-9.25-34.6h-31.09l-6.51,34.6h-20.8v22.81h16.51l-3.63,19.29h-12.88v22.81h8.59l-8.59,45.66h29.17l7.52-45.66h20.7l12.12,45.66h22.74l12.12-45.66h20.7l7.52,45.66h29.17l-8.59-45.66h8.59v-22.81h-12.88l-3.63-19.29h16.51ZM676.64,524.9l-5.15,19.29h-3.97l-5.15-19.29h14.28ZM629.06,544.19l3.18-19.29h2.6l5.12,19.29h-10.89ZM709.93,544.19h-10.89l5.12-19.29h2.6l3.18,19.29Z"/>
  <path d="M356.78,540.08c0-20.21-8.19-38.51-21.44-51.76l21.44-21.44-11.31-11.31-22.7,22.7c-11.33-7.2-24.76-11.38-39.18-11.38s-27.85,4.19-39.18,11.38l-22.7-22.7-11.31,11.31,21.44,21.44c-13.25,13.25-21.44,31.55-21.44,51.76s8.19,38.51,21.44,51.76l-21.44,21.44,11.31,11.31,22.7-22.7c11.33,7.2,24.76,11.38,39.18,11.38s27.85-4.19,39.18-11.38l22.7,22.7,11.31-11.31-21.44-21.44c13.25-13.25,21.44-31.55,21.44-51.76ZM239.14,540.08c0-24.55,19.9-44.44,44.44-44.44s44.44,19.9,44.44,44.44-19.9,44.44-44.44,44.44-44.44-19.9-44.44-44.44Z"/>
  <path d="M858.34,612.67h27.12l-38.23-145.18h-27.56l-38.23,145.18h27.12l12.03-45.33h25.73l12.03,45.33ZM826.49,545.09l6.96-26.23,6.96,26.23h-13.92Z"/>
</svg>